<svg width="41" height="41" viewBox="0 0 41 41" fill="none" xmlns="http://www.w3.org/2000/svg">
<circle cx="20.5" cy="20.5" r="20.5" fill="black"/>
<path d="M28.9928 17.5361L21.7755 10.3189C21.5697 10.113 21.2951 10 20.9964 10C20.7035 10 20.429 10.113 20.2232 10.3189L13.0058 17.5361C12.5794 17.9626 12.5794 18.6567 13.0058 19.0829L13.6611 19.7385C13.8669 19.9442 14.1416 20.0574 14.4346 20.0574C14.7274 20.0574 15.0115 19.9442 15.2172 19.7385L19.437 15.5278V28.9052C19.437 29.5081 19.9092 30 20.5121 30H21.439C22.0419 30 22.5619 29.5081 22.5619 28.9052V15.4803L26.8056 19.7385C27.0113 19.9442 27.2786 20.0574 27.5716 20.0574C27.8647 20.0574 28.1352 19.9442 28.3412 19.7385L28.9946 19.0829C29.4211 18.6566 29.4195 17.9626 28.9928 17.5361Z" fill="white"/>
</svg>
