<svg width="47" height="142" viewBox="0 0 47 142" fill="none" xmlns="http://www.w3.org/2000/svg">
<path d="M22.3185 0.956665C14.1221 0.956665 9.65131 21.7084 9.65131 21.7084C9.65131 21.7084 16.7728 26.7656 20.3121 24.1498C23.8515 21.534 35.172 21.7084 35.172 21.7084C35.172 21.7084 30.515 0.956665 22.3185 0.956665Z" fill="url(#paint0_linear)"/>
<path d="M9.65131 21.7084C9.65131 21.7084 3.69029 21.7084 1.82744 30.0789C1.82744 30.0789 20.3121 35.4848 24.5966 33.0434C28.8811 30.602 45.2313 33.0434 45.2313 33.0434C45.1545 23.3768 35.7838 20.6312 35.172 21.7084C35.172 21.7084 23.8515 21.534 20.3121 24.1498C16.7728 26.7656 9.65131 21.7084 9.65131 21.7084Z" fill="url(#paint1_linear)"/>
<path d="M1.82744 30.0789C-0.0354025 38.4493 1.82744 57.806 1.82744 57.806C1.82744 57.806 5.69668 56.7435 9.65131 55.0949C13.6059 53.4464 16.2564 53.7952 20.3121 53.7952C25.8927 53.7952 32.9793 55.6468 37.4501 55.9417C41.9209 56.2365 45.2313 57.806 45.2313 57.806C46.9505 46.6454 45.3081 42.7135 45.2313 33.0434C45.2313 33.0434 28.8811 30.602 24.5966 33.0434C20.3121 35.4848 1.82744 30.0789 1.82744 30.0789Z" fill="url(#paint2_linear)"/>
<path d="M36.5187 78.7321C38.0517 72.9774 43.512 68.9666 45.2313 57.806C45.2313 57.806 41.9209 56.2365 37.4501 55.9417C32.9793 55.6468 25.8927 53.7952 20.3121 53.7952C16.2564 53.7952 13.6059 53.4464 9.65131 55.0949C5.69668 56.7435 1.82744 57.806 1.82744 57.806C1.82744 57.806 0.134533 61.9912 3.73297 69.6641C7.3314 77.3371 9.65131 78.7321 9.65131 78.7321C9.65131 78.7321 14.7473 79.966 18.0767 79.9528C21.3179 79.94 23.0443 78.9963 26.2732 78.7321C30.2591 78.406 36.5187 78.7321 36.5187 78.7321Z" fill="url(#paint3_linear)"/>
<path d="M18.0767 79.9528C14.7473 79.966 9.65131 78.7321 9.65131 78.7321C9.65131 78.7321 7.49264 86.7783 8.01747 92.5085C8.49092 97.6777 12.2593 106.634 12.2593 106.634C12.2593 106.634 17.231 107.477 20.3121 108.377C24.5152 109.606 29.255 109.038 31.1165 107.854C32.978 106.671 35.172 106.634 35.172 106.634C35.172 106.634 38.7205 103.836 38.9404 96.6937C39.1121 91.116 37.4501 79.9528 36.5187 78.7321C36.5187 78.7321 30.2591 78.406 26.2732 78.7321C23.0443 78.9963 21.3179 79.94 18.0767 79.9528Z" fill="url(#paint4_linear)"/>
<path d="M20.3121 108.377C17.231 107.477 12.2593 106.634 12.2593 106.634C12.2593 106.634 10.4818 110.644 11.3706 117.62C12.2593 124.595 14.5374 127.734 14.5374 127.734C14.5374 127.734 19.7533 125.99 22.5475 127.734C25.3417 129.478 27.7953 127.351 31.1165 127.734C32.7147 127.919 35.172 128.432 35.172 128.432C35.172 128.432 38.9404 125.99 38.9404 117.62C38.9404 109.249 35.172 106.634 35.172 106.634C35.172 106.634 32.978 106.671 31.1165 107.854C29.255 109.038 24.5152 109.606 20.3121 108.377Z" fill="url(#paint5_linear)"/>
<path d="M14.5374 127.734C14.5374 127.734 6.44181 138.72 12.2593 140.29C18.0767 141.859 17.8904 132.791 24.5966 133.663C31.3028 134.535 33.5382 144.649 36.705 140.29C39.8718 135.93 35.172 128.432 35.172 128.432C35.172 128.432 32.7147 127.919 31.1165 127.734C27.7953 127.351 25.3417 129.478 22.5475 127.734C19.7533 125.99 14.5374 127.734 14.5374 127.734Z" fill="url(#paint6_linear)"/>
<path d="M9.65131 21.7084C9.65131 21.7084 14.1221 0.956665 22.3185 0.956665C30.515 0.956665 35.172 21.7084 35.172 21.7084M9.65131 21.7084C9.65131 21.7084 3.69029 21.7084 1.82744 30.0789M9.65131 21.7084C9.65131 21.7084 16.7728 26.7656 20.3121 24.1498C23.8515 21.534 35.172 21.7084 35.172 21.7084M1.82744 30.0789C-0.0354026 38.4493 1.82744 57.806 1.82744 57.806M1.82744 30.0789C1.82744 30.0789 20.3121 35.4848 24.5966 33.0434C28.8811 30.602 45.2313 33.0434 45.2313 33.0434M1.82744 57.806C1.82744 57.806 5.69668 56.7435 9.65131 55.0949C13.6059 53.4464 16.2564 53.7952 20.3121 53.7952C25.8927 53.7952 32.9793 55.6468 37.4501 55.9417C41.9209 56.2365 45.2313 57.806 45.2313 57.806M1.82744 57.806C1.82744 57.806 0.134533 61.9912 3.73297 69.6641C7.3314 77.3371 9.65131 78.7321 9.65131 78.7321M9.65131 78.7321C9.65131 78.7321 14.7473 79.966 18.0767 79.9528C21.3179 79.94 23.0443 78.9963 26.2732 78.7321C30.2591 78.406 36.5187 78.7321 36.5187 78.7321M9.65131 78.7321C9.65131 78.7321 7.49264 86.7783 8.01747 92.5085C8.49092 97.6777 12.2593 106.634 12.2593 106.634M12.2593 106.634C12.2593 106.634 17.231 107.477 20.3121 108.377C24.5152 109.606 29.255 109.038 31.1165 107.854C32.978 106.671 35.172 106.634 35.172 106.634M12.2593 106.634C12.2593 106.634 10.4818 110.644 11.3706 117.62C12.2593 124.595 14.5374 127.734 14.5374 127.734M14.5374 127.734C14.5374 127.734 6.44181 138.72 12.2593 140.29C18.0767 141.859 17.8904 132.791 24.5966 133.663C31.3028 134.535 33.5382 144.649 36.705 140.29C39.8718 135.93 35.172 128.432 35.172 128.432M14.5374 127.734C14.5374 127.734 19.7533 125.99 22.5475 127.734C25.3417 129.478 27.7953 127.351 31.1165 127.734C32.7147 127.919 35.172 128.432 35.172 128.432M35.172 128.432C35.172 128.432 38.9404 125.99 38.9404 117.62C38.9404 109.249 35.172 106.634 35.172 106.634M35.172 106.634C35.172 106.634 38.7205 103.836 38.9404 96.6937C39.1121 91.116 37.4501 79.9528 36.5187 78.7321M36.5187 78.7321C38.0517 72.9774 43.512 68.9666 45.2313 57.806M45.2313 57.806C46.9505 46.6454 45.3081 42.7135 45.2313 33.0434M45.2313 33.0434C45.1545 23.3768 35.7838 20.6312 35.172 21.7084" stroke="url(#paint7_linear)"/>
<defs>
<linearGradient id="paint0_linear" x1="44.4033" y1="57.806" x2="23.4521" y2="53.6467" gradientUnits="userSpaceOnUse">
<stop stop-color="#505050"/>
<stop offset="1"/>
</linearGradient>
<linearGradient id="paint1_linear" x1="44.4033" y1="57.806" x2="23.4521" y2="53.6467" gradientUnits="userSpaceOnUse">
<stop stop-color="#505050"/>
<stop offset="1"/>
</linearGradient>
<linearGradient id="paint2_linear" x1="44.4033" y1="57.806" x2="23.4521" y2="53.6467" gradientUnits="userSpaceOnUse">
<stop stop-color="#505050"/>
<stop offset="1"/>
</linearGradient>
<linearGradient id="paint3_linear" x1="44.4033" y1="57.806" x2="23.4521" y2="53.6467" gradientUnits="userSpaceOnUse">
<stop stop-color="#505050"/>
<stop offset="1"/>
</linearGradient>
<linearGradient id="paint4_linear" x1="44.4033" y1="57.806" x2="23.4521" y2="53.6467" gradientUnits="userSpaceOnUse">
<stop stop-color="#505050"/>
<stop offset="1"/>
</linearGradient>
<linearGradient id="paint5_linear" x1="44.4033" y1="57.806" x2="23.4521" y2="53.6467" gradientUnits="userSpaceOnUse">
<stop stop-color="#505050"/>
<stop offset="1"/>
</linearGradient>
<linearGradient id="paint6_linear" x1="44.4033" y1="57.806" x2="23.4521" y2="53.6467" gradientUnits="userSpaceOnUse">
<stop stop-color="#505050"/>
<stop offset="1"/>
</linearGradient>
<linearGradient id="paint7_linear" x1="0.999511" y1="59.5817" x2="45.9925" y2="57.9796" gradientUnits="userSpaceOnUse">
<stop stop-color="#999999"/>
<stop offset="1"/>
</linearGradient>
</defs>
</svg>
